<svg xmlns="http://www.w3.org/2000/svg" id="Grupo_807" data-name="Grupo 807" width="188.293" height="128.624" viewBox="0 0 188.293 128.624">
  <g id="Grupo_807-2" data-name="Grupo 807">
    <path id="Trazado_1" data-name="Trazado 1" d="M126.705,163.616c-.707,2.23-5.751,10.7-14.693,10.7a14.475,14.475,0,0,1-11.359-4.787c-2.818-3.192-4.225-7.325-4.225-12.346s1.41-9.152,4.225-12.344a14.468,14.468,0,0,1,11.359-4.787c4.742,0,9.823,1.7,12.851,7.834l-7.368,2.21c-1.146-5.793-3.767-9.17-8.105-8.188-9.121,2.065-8.881,27.671,6.51,27.671,6.816,0,9.374-6.59,9.374-6.59Z" transform="translate(-73.985 -107.455)" fill="#fff"/>
    <path id="Trazado_2" data-name="Trazado 2" d="M253.052,203.637v.473c-1,0-6.614.32-6.806-3.871-2.285,2.778-4.769,4.111-7.958,4.111a6.914,6.914,0,0,1-7.27-6.82c0-8.217,15.216-8.813,15.216-8.813,0-5.8-.929-8.43-3.6-8.43-3.464,0-4.922,5.451-5.242,6.764l-4.217-.655c.732-4.179,5.686-6.712,9.324-6.712,6.136,0,9.658,4.134,9.658,8.1,0,3.591-.01,13.545-.01,13.545,0,1.723.375,2.141.91,2.3m-6.818-13.869s-9.439-.281-9.439,7.764c0,5.034,6.508,6.818,9.435.9Z" transform="translate(-177.25 -137.864)" fill="#fff"/>
    <path id="Trazado_3" data-name="Trazado 3" d="M353.168,196.927a6.5,6.5,0,0,1-2.523,5.343,9.766,9.766,0,0,1-6.363,1.986,21.038,21.038,0,0,1-9.954-2.721l0-4.742.611.014c.766,2.24,4.727,6.864,9.3,6.864,3.993,0,5.409-2.032,5.409-3.773,0-2.369-1.987-3.372-5.653-4.391-2.471-.688-4.383-1.275-5.843-1.795a6.522,6.522,0,0,1-4.586-7.372,7.914,7.914,0,0,1,8.038-6.717,17.051,17.051,0,0,1,9.088,2.466l-.036,4.161-.658,0c-1.4-2-4.307-5.775-8.182-5.775-3.048,0-4.641,2.038-4.641,4.05,0,2.213,2.081,3.666,6.954,4.856l.609.142c2.945.684,8.427,1.956,8.429,7.4" transform="translate(-255.864 -137.817)" fill="#fff"/>
    <path id="Trazado_4" data-name="Trazado 4" d="M431.4,185.013v.768a11.474,11.474,0,0,1-3.5.563c-2.246,0-6.427-.094-6.427-6.983v-16.1h-2.651v-.881h.9c3.272,0,6.946-4.132,6.946-5.857l.678,0v5.858h3.49l0,.881h-3.488l-.028,16.5c0,3.592,1.061,5.413,3.152,5.413a3.008,3.008,0,0,0,.923-.162" transform="translate(-321.345 -120.091)" fill="#fff"/>
    <path id="Trazado_5" data-name="Trazado 5" d="M486.8,175.159v.473c-1.022,0-6.826.342-6.826-4.085l.006-11.7c0-1.16.006-4.4-.914-5.691l0-.556c.082,0,.167,0,.25,0a11.63,11.63,0,0,0,5.922-1.937l.654-.006v21.191c0,1.987.912,2.3.912,2.3m-6.949-29.574a3.02,3.02,0,1,1,3.02,3.02,3.02,3.02,0,0,1-3.02-3.02" transform="translate(-367.565 -109.383)" fill="#fff"/>
    <path id="Trazado_6" data-name="Trazado 6" d="M528.575,175.158v.475c-1.021,0-6.826.342-6.826-4.086l.006-20.8c0-1.159.005-4.4-.914-5.689l0-.556c.082,0,.168,0,.25,0a11.621,11.621,0,0,0,5.922-1.937l.654-.006v30.291c0,1.987.91,2.3.912,2.3" transform="translate(-399.614 -109.384)" fill="#fff"/>
    <path id="Trazado_7" data-name="Trazado 7" d="M569.536,175.158v.475c-1.021,0-6.826.342-6.826-4.086l.006-20.8c0-1.159.006-4.4-.914-5.689l0-.556c.082,0,.168,0,.25,0a11.621,11.621,0,0,0,5.923-1.937l.654-.006v30.291c0,1.987.91,2.3.912,2.3" transform="translate(-431.042 -109.384)" fill="#fff"/>
    <path id="Trazado_8" data-name="Trazado 8" d="M626.717,191.942a12.4,12.4,0,0,1-3.39,8.886,11.579,11.579,0,0,1-8.728,3.49,11.718,11.718,0,0,1-8.728-3.493,12.553,12.553,0,0,1-3.336-8.883,12.265,12.265,0,0,1,3.338-8.784,12.534,12.534,0,0,1,17.457,0,12.094,12.094,0,0,1,3.387,8.784m-6.335.056c.054-5.854-1.348-9.948-3.845-11.235a4.06,4.06,0,0,0-1.826-.44c-3.643-.033-5.773,4.185-5.841,11.571-.008.959.025,9.425,3.888,11.415a3.848,3.848,0,0,0,1.738.42c2.3.021,3.956-1.548,4.936-4.662a25.5,25.5,0,0,0,.949-7.068" transform="translate(-462.298 -137.813)" fill="#fff"/>
    <path id="Trazado_9" data-name="Trazado 9" d="M356.237,311.769v.256c-.5,0-3.109.145-3.6-1.6a3.317,3.317,0,0,1-3.085,1.688c-3.7,0-6.239-2.172-6.239-6.455,0-6.051,3.845-6.7,5.5-6.7a4.749,4.749,0,0,1,3.74,1.666v-2.035a6.805,6.805,0,0,0-.493-3.074l0-.3c.044,0,.09,0,.135,0a6.283,6.283,0,0,0,3.2-1.047l.353,0v16.366c0,1.074.492,1.244.493,1.243m-3.735-8.906a2.977,2.977,0,0,0-2.707-3.24c-2.21,0-3.2,1.861-3.2,6.033,0,3.716.493,6.019,2.953,6.019A3,3,0,0,0,352.5,308.4Z" transform="translate(-263.408 -225.695)" fill="#fff"/>
    <path id="Trazado_10" data-name="Trazado 10" d="M418.275,321.01l-9.245-.049a5.061,5.061,0,0,0,.472,1.279c.716,1.423,2.327,3.811,5.07,3.811a3.615,3.615,0,0,0,2.988-2.214l.5.381a8.615,8.615,0,0,1-1.054,1.42,6.258,6.258,0,0,1-4.716,1.885,6.332,6.332,0,0,1-4.715-1.886,7.218,7.218,0,0,1,0-9.548,5.776,5.776,0,0,1,4.341-1.911,6.155,6.155,0,0,1,4.752,1.787,7.394,7.394,0,0,1,1.61,5.045m-3.133-.488c.053-3.982-1.9-5.773-3.723-5.773a2.867,2.867,0,0,0-1.3.313c-1.25.628-2.078,2.83-1.3,5.424Z" transform="translate(-311.326 -241.054)" fill="#fff"/>
    <path id="Trazado_11" data-name="Trazado 11" d="M245.279,93.94l.462,0-.514,2.791H233.8l0-.343a1.54,1.54,0,0,0,.537-1.171V80.379a1.537,1.537,0,0,0-.537-1.171l0-.344h11.422l.514,2.791-.462,0a3.8,3.8,0,0,0-3.156-2.242h-4.53v7.606h2.981c2.173,0,2.332-1.154,2.332-1.154l.462,0V88.7l-.462,0s-.158-1.128-2.332-1.128h-2.981v8.6h4.53a3.8,3.8,0,0,0,3.156-2.241" transform="translate(-179.387 -60.509)" fill="#fff"/>
    <path id="Trazado_12" data-name="Trazado 12" d="M294.6,96.267v.256c-.552,0-3.688.185-3.688-2.207l0-11.237a6.8,6.8,0,0,0-.494-3.074l0-.3c.045,0,.09,0,.135,0a6.281,6.281,0,0,0,3.2-1.047l.354,0V95.022c0,1.074.491,1.245.492,1.245" transform="translate(-222.823 -60.35)" fill="#fff"/>
    <path id="Trazado_13" data-name="Trazado 13" d="M33.311,372.153c-.778,2.455-6.328,11.772-16.166,11.772a15.928,15.928,0,0,1-12.5-5.266C1.548,375.145,0,370.6,0,365.076s1.55-10.069,4.648-13.583a15.921,15.921,0,0,1,12.5-5.266c5.217,0,10.807,1.868,14.138,8.62l-8.107,2.432c-1.261-6.373-4.144-10.089-8.917-9.009-10.035,2.273-9.771,30.445,7.162,30.445,7.5,0,10.314-7.25,10.314-7.25Z" transform="translate(0 -265.644)" fill="#fff"/>
    <path id="Trazado_14" data-name="Trazado 14" d="M168.478,390.792l-.035.5s-7.61,1.125-7.61-5.145l.007-13.972c0-3.952-1.035-5.956-3.335-5.956-2.907,0-4.906,3.971-5.612,7.009v15.1c0,2.185,1,2.536,1,2.536v.521c-1.126,0-7.51.376-7.51-4.495l.007-22.88a7.363,7.363,0,0,0-1.005-4.439l0-.612c.091,0,.184,0,.275,0a12.777,12.777,0,0,0,6.516-2.132l.72-.006V368.9c1.717-2.579,4.475-4.385,7.052-4.385,3.144,0,8.462,1.748,8.462,8.289V388.25c0,1.081.185,2.212,1.074,2.542" transform="translate(-110.776 -273.775)" fill="#fff"/>
    <path id="Trazado_15" data-name="Trazado 15" d="M276.313,416.188v.521c-1.1,0-7.277.352-7.488-4.259-2.514,3.057-5.247,4.522-8.756,4.522-4.756,0-8-3.444-8-7.5,0-9.041,16.741-9.7,16.741-9.7,0-6.382-1.023-9.274-3.965-9.274-3.811,0-5.415,6-5.768,7.442l-4.639-.72c.806-4.6,6.256-7.385,10.258-7.385,6.751,0,10.626,4.548,10.626,8.917,0,3.949-.011,14.9-.011,14.9,0,1.9.412,2.357,1,2.534m-7.5-15.258s-10.385-.309-10.385,8.541c0,5.539,7.16,7.5,10.381.989Z" transform="translate(-193.403 -299.103)" fill="#fff"/>
    <path id="Trazado_16" data-name="Trazado 16" d="M385.758,416.148l-.035.5s-7.61,1.125-7.61-5.145l.007-13.972c0-3.952-1.677-5.956-3.978-5.956-2.795,0-5.246,3.669-6.261,6.65v15.456c0,2.185,1,2.536,1,2.536v.521c-1.126,0-7.51.376-7.51-4.495l.006-12.864c0-1.277.007-4.845-1.005-6.261l0-.611c.091,0,.184,0,.275,0a12.788,12.788,0,0,0,6.516-2.132l.719-.006v3.636a12.279,12.279,0,0,1,8.343-4.138c3.144,0,8.462,1.748,8.462,8.288v15.446c0,1.081.185,2.213,1.074,2.542" transform="translate(-276.495 -299.131)" fill="#fff"/>
    <path id="Trazado_17" data-name="Trazado 17" d="M499.775,410.195a17.8,17.8,0,0,1-2.149,2.891,12.737,12.737,0,0,1-9.6,3.839,12.9,12.9,0,0,1-9.6-3.841,14.7,14.7,0,0,1,0-19.442,11.767,11.767,0,0,1,8.84-3.891c4.873,0,10.234,2.629,11.855,7.448l-5.765,1.217c-.914-3.707-5.135-9.637-10.379-6.593-3.055,1.773-3.973,7.689-.623,14.346,1.459,2.9,4.741,7.761,10.325,7.761,2.672,0,5.084-2.268,6.083-4.507Z" transform="translate(-364.254 -299.037)" fill="#fff"/>
    <path id="Trazado_18" data-name="Trazado 18" d="M610.53,416.188v.521c-1.1,0-7.277.352-7.489-4.259-2.514,3.057-5.247,4.522-8.755,4.522-4.756,0-8-3.444-8-7.5,0-9.041,16.741-9.7,16.741-9.7,0-6.382-1.023-9.274-3.965-9.274-3.811,0-5.415,6-5.768,7.442l-4.639-.72c.806-4.6,6.256-7.385,10.258-7.385,6.751,0,10.625,4.548,10.625,8.917,0,3.949-.011,14.9-.011,14.9,0,1.9.412,2.357,1,2.534m-7.5-15.258s-10.385-.309-10.385,8.541c0,5.539,7.16,7.5,10.381.989Z" transform="translate(-449.832 -299.103)" fill="#fff"/>
    <path id="Trazado_19" data-name="Trazado 19" d="M711.045,392.018h5.9l-.029.147c-.12,0-2.995,1.173-3.777,3.3-1.377,3.745-10.864,26.891-10.864,26.891-.562,1.412-2.276,7.043-7.032,7.043a5.188,5.188,0,0,1-4.129-1.744l1.855-2.395c4.806,4.139,7.467-1.049,8.2-2.823.337-.818.81-1.905,1.409-3.336,0,0,.275-.665.714-1.732-.844-2.082-7.112-17.522-7.411-18.023-2.019-3.4-3.579-4.9-5.664-3.927a3.241,3.241,0,0,0-.843.591l-.359-.764a23.9,23.9,0,0,1,3.96-2.517c2.237-1.045,5.977-1.407,8.4,2.813.674,1.177,4.438,10.431,5.51,13.077,2.253-5.49,4.629-11.315,5.061-12.473,1.038-2.785-.906-4.006-.906-4.006Z" transform="translate(-528.653 -300.777)" fill="#fff"/>
    <path id="Trazado_20" data-name="Trazado 20" d="M169.623,330.62q8.055-.486,16.117-.767a62.4,62.4,0,0,1,12.088.106,34.87,34.87,0,0,1,4.029.661v.22a55.8,55.8,0,0,1-16.117.767q-8.063-.274-16.117-.767Z" transform="translate(-130.144 -252.895)" fill="#fff"/>
    <path id="Trazado_21" data-name="Trazado 21" d="M526.72,330.865q-8.055.486-16.117.767a62.388,62.388,0,0,1-12.088-.106,34.884,34.884,0,0,1-4.029-.661v-.219a55.8,55.8,0,0,1,16.117-.767q8.063.274,16.117.767Z" transform="translate(-379.396 -252.922)" fill="#fff"/>
    <path id="Trazado_22" data-name="Trazado 22" d="M560.266,0h-8.3a2.144,2.144,0,0,0-2.141,2.141V6.368h-4.012V2.141A2.144,2.144,0,0,0,543.674,0h-8.3a2.144,2.144,0,0,0-2.142,2.141V6.368h-4.012V2.141A2.144,2.144,0,0,0,527.083,0h-8.3a2.144,2.144,0,0,0-2.142,2.141V30.589l4.283-1.762V4.283h4.013V8.509a2.144,2.144,0,0,0,2.142,2.142h8.3a2.144,2.144,0,0,0,2.141-2.142V4.283h4.013V8.509a2.144,2.144,0,0,0,2.141,2.142h8.3a2.144,2.144,0,0,0,2.142-2.142V4.283h4.012V39.412l4.284,3.669V2.141A2.144,2.144,0,0,0,560.266,0" transform="translate(-396.398 0)" fill="#fff"/>
  </g>
</svg>