<svg xmlns="http://www.w3.org/2000/svg" version="1.1" xmlns:xlink="http://www.w3.org/1999/xlink" width="512" height="512" x="0" y="0" viewBox="0 0 512 512" style="enable-background:new 0 0 512 512" xml:space="preserve" class=""><g><g fill-rule="evenodd" clip-rule="evenodd"><path fill="#f44336" d="M256-.002C114.84-.002-.002 114.841-.002 256c0 141.16 114.843 255.998 256.002 255.998S512.002 397.16 512.002 256C512.002 114.841 397.159-.002 256-.002z" opacity="1" data-original="#f44336" class=""></path><path fill="#ffffff" d="M368.701 205.442c-4.679-4.679-12.283-4.679-16.972 0-4.679 4.689-4.679 12.288 0 16.967l21.59 21.59H238.57c-6.632 0-12.001 5.373-12.001 12 0 6.632 5.368 12.001 12.001 12.001h134.749l-21.59 21.59c-4.679 4.679-4.679 12.279 0 16.968 2.354 2.344 5.42 3.514 8.491 3.514s6.142-1.17 8.482-3.514l42.067-42.067a12.023 12.023 0 0 0 3.524-8.491c0-3.179-1.269-6.241-3.524-8.491zM338.62 338.073c4.722 4.656 4.76 12.255.099 16.967-26.666 26.968-62.228 41.817-100.149 41.817-77.667 0-140.862-63.186-140.862-140.858s63.195-140.862 140.862-140.862c37.921 0 73.483 14.854 100.149 41.822 4.66 4.708 4.623 12.311-.099 16.972-4.712 4.661-12.307 4.618-16.967-.099-22.123-22.373-51.633-34.694-83.082-34.694-64.441 0-116.862 52.421-116.862 116.862s52.421 116.862 116.862 116.862c31.449 0 60.959-12.321 83.082-34.69 4.66-4.722 12.255-4.76 16.967-.099z" opacity="1" data-original="#ffffff"></path></g></g></svg>